<?xml version="1.0" standalone="no"?>
<!DOCTYPE svg PUBLIC "-//W3C//DTD SVG 20010904//EN"
 "http://www.w3.org/TR/2001/REC-SVG-20010904/DTD/svg10.dtd">
<svg version="1.0" xmlns="http://www.w3.org/2000/svg"
 width="150.000000pt" height="150.000000pt" viewBox="0 0 150.000000 150.000000"
 preserveAspectRatio="xMidYMid meet">

<g transform="translate(0.000000,150.000000) scale(0.100000,-0.100000)"
fill="#000000" stroke="none">
<path d="M0 750 l0 -750 750 0 750 0 0 750 0 750 -750 0 -750 0 0 -750z m1358
299 c21 1 23 -3 20 -36 -3 -41 -23 -55 -33 -23 -15 46 -110 53 -103 8 2 -17
14 -25 51 -34 72 -18 97 -38 97 -78 0 -21 -8 -40 -21 -52 -20 -18 -27 -19
-142 -14 l-38 2 3 41 c4 50 18 56 39 18 19 -33 67 -48 98 -31 45 24 22 48 -66
70 -71 18 -93 71 -47 117 23 23 31 25 72 19 26 -4 57 -7 70 -7z m-1158 -8 c0
-5 -6 -11 -14 -14 -12 -5 -11 -16 7 -71 11 -36 24 -66 28 -66 7 0 39 95 39
115 0 7 -7 15 -15 19 -32 12 -13 26 35 26 46 0 67 -13 38 -22 -9 -3 -7 -21 6
-72 10 -37 21 -64 24 -61 10 10 42 99 42 118 0 9 -7 17 -15 17 -8 0 -15 5 -15
10 0 6 62 10 165 10 l165 0 0 -34 c0 -35 -20 -61 -28 -37 -11 32 -43 52 -80
49 -30 -2 -38 -7 -40 -26 -6 -39 5 -55 28 -42 11 6 20 17 20 25 0 8 5 15 10
15 6 0 10 -27 10 -60 0 -63 -8 -75 -25 -37 -16 35 -40 28 -43 -14 -3 -30 1
-37 19 -42 41 -11 81 4 93 35 15 39 30 30 34 -20 l3 -42 -120 0 c-112 0 -150
9 -101 25 18 6 20 15 20 90 0 46 -5 87 -10 90 -28 17 -47 -8 -79 -106 -31 -95
-34 -100 -59 -97 -20 2 -28 12 -41 50 -9 26 -19 49 -22 52 -3 3 -13 -19 -23
-50 -16 -50 -20 -55 -43 -52 -22 3 -30 15 -60 98 -18 52 -38 99 -43 104 -19
19 -9 26 40 26 28 0 50 -4 50 -9z m640 0 c0 -5 -9 -11 -20 -14 -18 -5 -20 -14
-20 -90 0 -75 2 -86 19 -92 30 -9 70 12 77 40 10 38 29 24 32 -23 l3 -42 -110
0 c-74 0 -111 4 -111 11 0 6 9 13 20 16 18 5 20 14 20 90 0 76 -2 85 -20 90
-41 11 -18 23 45 23 36 0 65 -4 65 -9z m240 0 c0 -5 -9 -11 -20 -14 -18 -5
-20 -14 -20 -90 0 -77 2 -86 20 -92 28 -9 74 16 78 43 2 12 10 22 18 22 10 0
14 -13 14 -45 l0 -45 -110 0 c-73 0 -110 4 -110 11 0 6 9 13 20 16 18 5 20 14
20 90 0 76 -2 85 -20 90 -41 11 -18 23 45 23 36 0 65 -4 65 -9z m-720 -391 c0
-45 -19 -54 -35 -17 -8 17 -20 23 -52 25 l-43 3 0 -35 c0 -29 4 -36 19 -36 10
0 21 9 24 20 11 41 27 20 27 -35 0 -42 -3 -55 -15 -55 -8 0 -15 9 -15 20 0 13
-7 20 -20 20 -17 0 -20 -7 -20 -40 0 -33 3 -40 20 -40 11 0 20 -7 20 -15 0
-12 -14 -15 -65 -15 -51 0 -65 3 -65 15 0 8 9 15 20 15 19 0 20 7 20 90 0 83
-1 90 -20 90 -11 0 -20 7 -20 15 0 12 19 15 110 15 l110 0 0 -40z m165 -65
c37 -88 45 -100 68 -103 l27 -3 0 90 c0 84 -1 91 -20 91 -12 0 -20 7 -20 16 0
14 14 15 101 12 86 -2 103 -6 115 -22 21 -29 17 -63 -8 -80 -17 -12 -20 -18
-10 -28 7 -7 12 -24 12 -39 0 -32 17 -48 26 -25 9 22 24 20 24 -3 0 -27 -37
-52 -63 -42 -14 5 -24 21 -29 46 -10 48 -24 65 -54 65 -21 0 -24 -5 -24 -40 0
-33 3 -40 20 -40 11 0 20 -7 20 -15 0 -12 -19 -15 -115 -15 -96 0 -115 3 -115
15 0 8 7 15 15 15 16 0 19 9 9 34 -4 11 -19 16 -50 16 -24 0 -44 -4 -44 -9 0
-5 -3 -16 -6 -25 -4 -12 0 -16 16 -16 13 0 20 -5 18 -12 -6 -17 -108 -24 -108
-8 0 7 9 19 19 28 10 10 31 51 46 92 39 104 43 112 68 108 16 -2 30 -25 62
-103z m496 95 c13 -7 19 -7 19 0 0 5 7 10 15 10 11 0 15 -11 15 -40 0 -47 -19
-53 -44 -15 -23 35 -79 35 -102 0 -19 -29 -15 -114 6 -140 15 -18 71 -20 88
-3 19 19 14 49 -8 55 -37 10 -14 28 38 31 42 2 52 0 52 -12 0 -9 -4 -16 -10
-16 -5 0 -10 -20 -10 -44 0 -45 -14 -66 -31 -49 -7 7 -23 6 -46 -2 -66 -23
-124 8 -145 77 -14 49 2 109 39 137 28 23 91 28 124 11z m319 -19 c49 -49 52
-124 6 -178 -19 -22 -33 -27 -84 -31 -60 -4 -63 -3 -97 31 -31 31 -35 41 -35
87 0 46 4 56 34 86 31 31 40 34 91 34 49 0 60 -4 85 -29z"/>
<path d="M670 625 c0 -32 2 -35 29 -35 44 0 61 10 61 35 0 25 -17 35 -61 35
-27 0 -29 -3 -29 -35z"/>
<path d="M441 599 c-16 -45 -14 -49 15 -49 24 0 26 2 20 32 -9 48 -22 54 -35
17z"/>
<path d="M1224 660 c-43 -17 -58 -131 -22 -166 25 -25 62 -26 91 -4 23 19 27
29 27 75 0 75 -42 117 -96 95z"/>
</g>
</svg>
